<?xml version="1.0" encoding="UTF-8" standalone="no"?> <!-- Created with Vectornator for iOS (http://vectornator.io/) --><!DOCTYPE svg PUBLIC "-//W3C//DTD SVG 1.1//EN" "http://www.w3.org/Graphics/SVG/1.1/DTD/svg11.dtd">
<svg style="fill-rule:evenodd;clip-rule:evenodd;stroke-linecap:round;stroke-linejoin:round;" xmlns:vectornator="http://vectornator.io" xmlns:xlink="http://www.w3.org/1999/xlink" xmlns="http://www.w3.org/2000/svg" xml:space="preserve" version="1.1" viewBox="0 0 100 80">
<metadata>
<vectornator:setting key="RulersVisible" value="1"/>
<vectornator:setting key="Units" value="Points"/>
<vectornator:setting key="DynamicGuides" value="0"/>
<vectornator:setting key="GuidesVisible" value="1"/>
<vectornator:setting key="CMYKEnabledKey" value="0"/>
<vectornator:setting key="SnapToGuides" value="0"/>
<vectornator:setting key="GridSpacing" value="36"/>
</metadata>
<defs/>
<g id="Layer 5" vectornator:layerName="Layer 5">
<g opacity="1">
<path stroke="#fead7d" stroke-width="3.41" d="M3.4016+15.682L3.38078+64.7068C3.3785+69.9715+6.74259+74.2394+10.8946+74.2394L89.0068+74.2394C93.1583+74.2394+96.5242+69.9715+96.5242+64.7068L96.5242+15.682C96.5242+10.4173+93.1583+6.1494+89.0068+6.1494L10.9236+6.1494C6.77162+6.1494+3.40389+10.4173+3.4016+15.682Z" fill="none" stroke-linecap="round" opacity="1" stroke-linejoin="round"/>
<path stroke="#fead7d" stroke-width="1.4" d="M11.5599+6.06559L11.5565+3.85638C11.5549+2.7733+12.3433+1.8953+13.3175+1.8953L22.4449+1.8953C23.4191+1.8953+24.2088+2.7733+24.2088+3.85638L24.2088+6.06559L11.5599+6.06559Z" fill="none" stroke-linecap="round" opacity="1" stroke-linejoin="round"/>
<path stroke="#fead7d" stroke-width="1.55" d="M26.9028+40.3915C26.9028+27.4054+37.0219+16.8781+49.5046+16.8781C61.9865+16.8781+72.1066+27.4054+72.1066+40.3915C72.1066+53.3776+61.9865+63.905+49.5046+63.905C37.0219+63.905+26.9028+53.3776+26.9028+40.3915Z" fill="none" stroke-linecap="round" opacity="1" stroke-linejoin="round"/>
<path stroke="#fead7d" stroke-width="3.39" d="M22.4228+40.1944C22.4228+24.6184+34.5477+11.9915+49.5046+11.9915C64.4616+11.9915+76.5865+24.6184+76.5865+40.1944C76.5865+55.7705+64.4616+68.3973+49.5046+68.3973C34.5477+68.3973+22.4228+55.7705+22.4228+40.1944Z" fill="none" stroke-linecap="round" opacity="1" stroke-linejoin="round"/>
<path stroke="#fead7d" stroke-width="1.44" d="M21.4606+12.419C19.6693+14.0173+20.512+15.9353+23.0387+16.3773C25.5656+16.8192+26.085+15.2406+25.8671+13.7734C25.5416+11.5797+23.2519+10.8208+21.4606+12.419Z" fill="none" stroke-linecap="round" opacity="1" stroke-linejoin="round"/>
<path stroke="#fead7d" stroke-width="1.44" d="M69.1496+20.6613L96.1414+20.6613" fill="none" stroke-linecap="round" opacity="1" stroke-linejoin="round"/>
<path stroke="#fead7d" stroke-width="1.44" d="M3.42283+20.6613L29.2945+20.6613" fill="none" stroke-linecap="round" opacity="1" stroke-linejoin="round"/>
<path stroke="#fead7d" stroke-width="1.44" d="M67.9075+60.8825L96.5242+60.8825" fill="none" stroke-linecap="round" opacity="1" stroke-linejoin="round"/>
<path stroke="#fead7d" stroke-width="1.44" d="M3.38078+60.8825L30.738+60.8825" fill="none" stroke-linecap="round" opacity="1" stroke-linejoin="round"/>
</g>
</g>
</svg>
