<?xml version="1.0" encoding="UTF-8" standalone="no"?> <!-- Created with Vectornator for iOS (http://vectornator.io/) --><!DOCTYPE svg PUBLIC "-//W3C//DTD SVG 1.1//EN" "http://www.w3.org/Graphics/SVG/1.1/DTD/svg11.dtd">
<svg style="fill-rule:evenodd;clip-rule:evenodd;stroke-linecap:round;stroke-linejoin:round;" xmlns:vectornator="http://vectornator.io" xmlns:xlink="http://www.w3.org/1999/xlink" xmlns="http://www.w3.org/2000/svg" xml:space="preserve" version="1.1" viewBox="0 0 100 80">
<metadata>
<vectornator:setting key="DynamicGuides" value="1"/>
<vectornator:setting key="Units" value="Points"/>
<vectornator:setting key="GuidesVisible" value="1"/>
<vectornator:setting key="RulersVisible" value="1"/>
<vectornator:setting key="SnapToGuides" value="1"/>
<vectornator:setting key="GridSpacing" value="36"/>
</metadata>
<defs/>
<g id="Layer 4" vectornator:layerName="Layer 4">
<g opacity="1">
<path stroke="#c893f1" stroke-width="3.4" d="M11.9481+74.045L88.0475+74.045C92.7441+74.045+96.5516+69.7905+96.5516+64.5424L96.5516+15.4576C96.5516+10.2094+92.7441+5.955+88.0475+5.955L11.9481+5.955C7.25131+5.955+3.4439+10.2094+3.4439+15.4576L3.4439+64.5424C3.4439+69.7905+7.25131+74.045+11.9481+74.045Z" fill="none" stroke-linecap="round" opacity="1" stroke-linejoin="round"/>
<path stroke="#c893f1" stroke-width="2.63" d="M4.32695+20.7818L96.4555+20.7818" fill="none" stroke-linecap="round" opacity="1" stroke-linejoin="round"/>
<path stroke="#c893f1" stroke-width="3.4" d="M88.1515+13.1008L87.9915+13.1944L87.9158+13.4666L87.9387+13.6239L88.0412+13.7344L88.2847+13.8194L88.4448+13.7258L88.5433+13.611L88.4597+13.4324L88.2769+13.3687L88.2769+13.3687" fill="none" stroke-linecap="round" opacity="1" stroke-linejoin="round"/>
<path stroke="#c893f1" stroke-width="3.4" d="M81.2066+13.0158L81.1916+13.3092L81.3587+13.6664L81.5834+13.8194L81.7624+13.6578L81.7584+13.4324L81.4541+13.3262L81.2334+13.3985L81.2334+13.3985" fill="none" stroke-linecap="round" opacity="1" stroke-linejoin="round"/>
<path stroke="#c893f1" stroke-width="3.4" d="M74.5904+13.5186L74.6472+13.3145L74.5069+13.34L74.4493+13.5441L74.3547+13.8843L74.4572+13.9948L74.5139+13.7907L74.5139+13.7907" fill="none" stroke-linecap="round" opacity="1" stroke-linejoin="round"/>
<path stroke="#c893f1" stroke-width="1.77" d="M9.79341+30.2725L43.1994+30.2725" fill="none" stroke-linecap="round" opacity="1" stroke-linejoin="round"/>
<path stroke="#c893f1" stroke-width="1.77" d="M10.7958+38.4547L27.3786+38.4547" fill="none" stroke-linecap="round" opacity="1" stroke-linejoin="round"/>
<path stroke="#c893f1" stroke-width="1.77" d="M10.1267+46.3863L33.9665+46.3863" fill="none" stroke-linecap="round" opacity="1" stroke-linejoin="round"/>
</g>
</g>
</svg>
